custom-analysis
version=1
nRows=4
nColumns=98
inDegrees=no

This file contains tibia displacement and acting force.

Units are S.I. units (seconds, meters, Newtons, ...)
Angles are in degrees.

endheader
time	APT	SIT	knee_angle	aACL_R_force	pACL_R_force	aPCL_R_force	pPCL_R_force	aMCL_R_force	mMCL_R_force	pMCL_R_force	aLCL_R_force	mLCL_R_force	pLCL_R_force	aPCL_L_force	pPCL_L_force	aMCL_L_force	aLCL_L_force	aACL_R_length	pACL_R_length	aPCL_R_length	pPCL_R_length	aMCL_R_length	mMCL_R_length	pMCL_R_length	aLCL_R_length	mLCL_R_length	pLCL_R_length	aPCL_L_length	pPCL_L_length	aMCL_L_length	aLCL_L_length	aACL_R_strain	pACL_R_strain	aPCL_R_strain	pPCL_R_strain	aMCL_R_strain	mMCL_R_strain	pMCL_R_strain	aLCL_R_strain	mLCL_R_strain	pLCL_R_strain	aPCL_L_strain	pPCL_L_strain	aMCL_L_strain	aLCL_L_strain	femur_lat_meniscii_r.femur_lat_r.force.X	femur_lat_meniscii_r.femur_lat_r.force.Y	femur_lat_meniscii_r.femur_lat_r.force.Z	femur_lat_meniscii_r.femur_lat_r.torque.X	femur_lat_meniscii_r.femur_lat_r.torque.Y	femur_lat_meniscii_r.femur_lat_r.torque.Z	femur_lat_meniscii_r.meniscus_lat_r.force.X	femur_lat_meniscii_r.meniscus_lat_r.force.Y	femur_lat_meniscii_r.meniscus_lat_r.force.Z	femur_lat_meniscii_r.meniscus_lat_r.torque.X	femur_lat_meniscii_r.meniscus_lat_r.torque.Y	femur_lat_meniscii_r.meniscus_lat_r.torque.Z	femur_med_meniscii_r.femur_med_r.force.X	femur_med_meniscii_r.femur_med_r.force.Y	femur_med_meniscii_r.femur_med_r.force.Z	femur_med_meniscii_r.femur_med_r.torque.X	femur_med_meniscii_r.femur_med_r.torque.Y	femur_med_meniscii_r.femur_med_r.torque.Z	femur_med_meniscii_r.meniscus_med_r.force.X	femur_med_meniscii_r.meniscus_med_r.force.Y	femur_med_meniscii_r.meniscus_med_r.force.Z	femur_med_meniscii_r.meniscus_med_r.torque.X	femur_med_meniscii_r.meniscus_med_r.torque.Y	femur_med_meniscii_r.meniscus_med_r.torque.Z	femur_med_tibia_r.tibia_upper_r.force.X	femur_med_tibia_r.tibia_upper_r.force.Y	femur_med_tibia_r.tibia_upper_r.force.Z	femur_med_tibia_r.tibia_upper_r.torque.X	femur_med_tibia_r.tibia_upper_r.torque.Y	femur_med_tibia_r.tibia_upper_r.torque.Z	femur_med_tibia_r.femur_med_r.force.X	femur_med_tibia_r.femur_med_r.force.Y	femur_med_tibia_r.femur_med_r.force.Z	femur_med_tibia_r.femur_med_r.torque.X	femur_med_tibia_r.femur_med_r.torque.Y	femur_med_tibia_r.femur_med_r.torque.Z	femur_lat_tibia_r.tibia_upper_r.force.X	femur_lat_tibia_r.tibia_upper_r.force.Y	femur_lat_tibia_r.tibia_upper_r.force.Z	femur_lat_tibia_r.tibia_upper_r.torque.X	femur_lat_tibia_r.tibia_upper_r.torque.Y	femur_lat_tibia_r.tibia_upper_r.torque.Z	femur_lat_tibia_r.femur_lat_r.force.X	femur_lat_tibia_r.femur_lat_r.force.Y	femur_lat_tibia_r.femur_lat_r.force.Z	femur_lat_tibia_r.femur_lat_r.torque.X	femur_lat_tibia_r.femur_lat_r.torque.Y	femur_lat_tibia_r.femur_lat_r.torque.Z	femur_lat_meniscii_force_r	femur_med_meniscii_force_r	femur_lat_tibia_force_r	femur_med_tibia_force_r
      0.09610550	      0.00940599	      0.00627793	     23.31440200	     60.83267827	     27.04767102	      0.00000000	      0.00000000	      0.00000000	      0.00000000	    -37.58617525	      0.00000000	      0.00000000	      0.00000000	      0.00000000	      0.00000000	      0.00000001	      0.00000000	      0.03400510	      0.02695373	      0.02884202	      0.02855730	      0.05687751	      0.05973483	      0.05969145	      0.05267424	      0.05010137	      0.04691209	      0.01525851	      0.01651186	      0.06550154	      0.04489616	      0.09674409	      0.07562357	     -0.07246372	     -0.04451640	     -0.05246796	     -0.00098120	      0.01640535	     -0.05900538	     -0.11039396	     -0.10375107	      0.00000079	     -0.32847694	      0.00000060	     -0.00000086	      2.16513974	     98.20295540	      6.86272481	     -5.12406601	      0.07479380	      0.79810670	     -2.16513974	    -98.20295540	     -6.86272481	      2.74166414	     -0.15134914	      1.04900122	     -0.31032260	      2.98976495	      0.27883939	     -0.04769849	      0.01250832	     -0.13693397	      0.31032260	     -2.98976495	     -0.27883939	     -0.05160482	     -0.01462186	      0.04908025	    -42.60187019	   -435.74095548	    118.62868843	    -10.85028468	      1.57750786	      1.95678503	     42.60187019	    435.74095548	   -118.62868843	     57.37220836	     -0.45449775	     18.87512744	    -64.04128179	   -593.78775138	   -132.21456401	     19.64750932	     -2.81930595	      3.14415854	     64.04128179	    593.78775138	    132.21456401	    -68.79537040	      1.28852962	     27.53663890	     98.46626464	      3.01873251	    611.69099258	    453.60540710
      0.09698503	      0.00943057	      0.00638002	     23.67749518	     59.12353316	     24.86591750	      0.00000000	      0.00000000	      0.00000000	      0.00000000	    -37.39851622	      0.00000000	      0.00000000	      0.00000000	      0.00000000	      0.00000000	      0.00000001	      0.00000000	      0.03398328	      0.02691858	      0.02890704	      0.02860496	      0.05690461	      0.05972839	      0.05964377	      0.05266227	      0.05006698	      0.04685414	      0.01525851	      0.01651186	      0.06550154	      0.04489616	      0.09604023	      0.07422080	     -0.07037270	     -0.04292179	     -0.05201639	     -0.00108884	      0.01559340	     -0.05921924	     -0.11100448	     -0.10485811	      0.00000079	     -0.32847694	      0.00000060	     -0.00000086	      2.08403831	     98.28949850	      7.43025784	     -5.36546935	      0.07472374	      0.75778937	     -2.08403831	    -98.28949850	     -7.43025784	      2.76473750	     -0.15756057	      1.06745221	     -0.66991691	      2.89729612	      0.18838807	     -0.01081120	      0.02052145	     -0.28200019	      0.66991691	     -2.89729612	     -0.18838807	     -0.05411907	     -0.02082191	      0.05572591	    -41.59946784	   -439.77263080	    121.04884156	    -10.98677454	      1.59819245	      2.09173122	     41.59946784	    439.77263080	   -121.04884156	     58.43876344	     -0.43680692	     18.43488452	    -63.87208034	   -583.41152944	   -130.75725566	     19.33332573	     -2.82750505	      3.16839083	     63.87208034	    583.41152944	    130.75725566	    -67.95532135	      1.30202061	     27.38879090	     98.59197464	      2.97969856	    601.28704896	    458.02107437
      0.09786456	      0.00945200	      0.00648289	     24.04274327	     57.51229466	     22.80275769	      0.00000000	      0.00000000	      0.00000000	      0.00000000	    -36.79016242	      0.00000000	      0.00000000	      0.00000000	      0.00000000	      0.00000000	      0.00000001	      0.00000000	      0.03396005	      0.02688223	      0.02897430	      0.02865494	      0.05693243	      0.05972270	      0.05959677	      0.05265123	      0.05003340	      0.04679694	      0.01525851	      0.01651186	      0.06550154	      0.04489616	      0.09529119	      0.07277049	     -0.06820974	     -0.04124961	     -0.05155297	     -0.00118412	      0.01479307	     -0.05941649	     -0.11160082	     -0.10595093	      0.00000079	     -0.32847694	      0.00000060	     -0.00000086	      1.40494856	     97.53904863	      8.00977712	     -5.58838638	      0.05825906	      0.46217512	     -1.40494856	    -97.53904863	     -8.00977712	      2.76246786	     -0.14610425	      1.10323754	     -1.07822091	      2.92296962	      0.13783183	      0.01264743	      0.02994835	     -0.44688446	      1.07822091	     -2.92296962	     -0.13783183	     -0.05819531	     -0.02873139	      0.06476787	    -42.29629139	   -444.13221321	    122.27133777	    -11.07999401	      1.63674448	      2.16251127	     42.29629139	    444.13221321	   -122.27133777	     59.00307565	     -0.45353893	     18.71293158	    -66.35614462	   -573.68614040	   -129.53444859	     19.04110838	     -2.89870286	      3.08511138	     66.35614462	    573.68614040	    129.53444859	    -67.22634003	      1.37006281	     28.36865137	     97.87745613	      3.11854283	    591.85986431	    462.59342744
      0.09963031	      0.00948648	      0.00669088	     24.78265479	     54.50595944	     19.07236807	      0.00000000	      0.00000000	      0.00000000	      0.00000000	    -35.54202084	      0.00000000	      0.00000000	      0.00000000	      0.00000000	      0.00000000	      0.00000001	      0.00000000	      0.03391062	      0.02680718	      0.02911633	      0.02876241	      0.05699138	      0.05971436	      0.05950533	      0.05263257	      0.04996901	      0.04668492	      0.01525851	      0.01651186	      0.06550154	      0.04489616	      0.09369683	      0.06977546	     -0.06364220	     -0.03765367	     -0.05057095	     -0.00132351	      0.01323606	     -0.05974987	     -0.11274404	     -0.10809111	      0.00000079	     -0.32847694	      0.00000060	     -0.00000086	      0.42768095	     95.57551893	      8.47577556	     -5.73328028	      0.03385332	      0.03265808	     -0.42768095	    -95.57551893	     -8.47577556	      2.72087436	     -0.12554814	      1.15332526	     -1.98733549	      3.45647077	      0.00003016	      0.08489093	      0.05091754	     -0.81692095	      1.98733549	     -3.45647077	     -0.00003016	     -0.07646828	     -0.04606853	      0.09288038	    -41.77253450	   -449.95503444	    124.83541718	    -11.24115716	      1.68745642	      2.36700217	     41.77253450	    449.95503444	   -124.83541718	     60.14221941	     -0.45423018	     18.44133671	    -67.24242090	   -551.12569344	   -125.94383261	     18.33401636	     -2.93485861	      3.04158616	     67.24242090	    551.12569344	    125.94383261	    -65.21676822	      1.42376816	     28.60196812	     95.95155810	      3.98706565	    569.31794466	    468.81591168
